<svg width="512" height="512" viewBox="0 0 512 512" fill="none" xmlns="http://www.w3.org/2000/svg">
<rect width="512" height="512" rx="254" fill="#3A3A59"/>
<g clip-path="url(#clip0)">
<path d="M68.5312 275.399C68.5312 275.399 143.562 247.172 256.5 247.705C311.575 247.955 373.448 257.166 444.469 275.399C444.469 275.399 371.192 417.472 256.5 417.472C141.808 417.472 80.8119 303.5 68.5312 275.399Z" fill="url(#paint0_linear)"/>
<path d="M255.968 386.643C159.885 386.643 97.4166 318.191 75.2363 278.029C93.5633 272.014 160.418 252.371 253.243 252.371C315.304 252.371 377.051 261.018 436.92 278.06C420.911 300.428 352.835 386.643 255.968 386.643V386.643Z" fill="url(#paint1_linear)"/>
<path d="M253.273 247.703V257.102C312.64 257.102 371.725 265.059 429.087 280.786C408.065 308.542 344.062 381.944 255.999 381.944C209.289 381.944 166.87 366.249 129.903 335.328C105.31 314.745 89.897 292.941 82.3783 280.692C90.8369 278.091 104.214 274.332 121.601 270.604C150.486 264.432 196.789 257.07 253.273 257.07V247.703V247.703ZM253.242 247.703C141.87 247.703 68.5312 275.397 68.5312 275.397C80.8119 299.864 141.306 391.343 255.967 391.343C370.628 391.343 444.469 275.397 444.469 275.397C374.137 254.627 308.943 247.703 253.242 247.703V247.703Z" fill="#BF0000"/>
<path d="M348.541 313.901C350.202 312.084 352.019 310.423 354.525 310.361C358.66 310.267 365.051 309.577 370.095 306.539C371.567 305.661 372.821 304.44 373.76 302.967C370.22 302.247 365.364 300.179 362.075 293.788C357.062 284.076 362.858 275.148 372.476 265.217C383.315 254.033 401.329 215.656 382.188 181.445C378.585 180.913 326.392 181.696 313.172 181.696H256.812V337.428C318.717 337.428 330.966 333.387 348.541 313.901V313.901Z" fill="url(#paint2_radial)"/>
<path d="M165.083 313.901C163.423 312.084 161.606 310.423 159.1 310.361C154.964 310.267 148.573 309.577 143.53 306.539C142.057 305.661 140.804 304.44 139.864 302.967C143.404 302.247 148.479 300.273 151.55 293.788C156.562 283.293 149.451 273.957 141.149 265.217C127.584 250.9 112.296 215.656 131.437 181.445C135.04 180.913 187.232 181.696 200.453 181.696H256.812V337.428C194.908 337.428 182.658 333.387 165.083 313.901V313.901Z" fill="url(#paint3_radial)"/>
<path d="M378.302 187.209L379.117 188.775C396.097 221.357 377.394 253.405 369.123 261.958C359.85 271.513 351.266 283.042 357.908 295.949C359.631 299.301 361.886 301.995 364.581 303.969C360.884 305.285 356.842 305.598 354.43 305.661C349.543 305.786 346.41 309.263 345.063 310.767C334.412 322.578 326.36 328.405 304.055 330.974C304.055 330.974 292.495 336.895 284.506 338.9V341.751C323.541 340.341 336.103 334.764 352.049 317.064C353.271 315.686 354.086 315.09 354.65 315.059C359.599 314.934 366.68 314.057 372.507 310.579C374.606 309.326 376.391 307.572 377.738 305.473L381.404 299.677L374.7 298.33C370.971 297.578 368.215 295.385 366.272 291.626C363.014 285.329 365.646 279.063 375.89 268.474C388.578 255.379 404.962 221.67 388.327 187.366C388.327 187.366 388.327 187.303 388.359 187.209H378.302V187.209Z" fill="#2B1512"/>
<path d="M137.735 268.441C146.225 277.401 150.798 284.418 147.321 291.749C145.567 295.414 142.841 297.576 138.956 298.328L132.252 299.675L135.918 305.471C137.233 307.57 139.05 309.324 141.149 310.577C146.976 314.054 154.088 314.932 159.006 315.057C159.57 315.057 160.385 315.684 161.607 317.062C177.49 334.668 189.99 340.307 228.618 341.749V338.772C221.882 336.893 209.57 331.003 209.57 331.003C187.264 328.434 179.213 322.607 168.562 310.796C167.214 309.293 164.082 305.815 159.194 305.69C156.813 305.627 152.803 305.314 149.138 304.029C151.926 301.993 154.182 299.236 155.811 295.853C162.766 281.223 150.924 268.723 144.564 262.018C132.534 249.331 119.408 219.569 132.659 189.588L133.568 187.551L133.411 187.27H123.01C123.073 187.457 123.136 187.614 123.23 187.802C109.539 221.229 124.232 254.218 137.735 268.441V268.441Z" fill="#2B1512"/>
<path d="M98.293 449.831V420.038C98.293 360.954 197.854 349.519 228.367 347.42C230.842 347.263 232.753 345.196 232.753 342.721V327.871H280.247V342.783C280.247 345.258 282.158 347.295 284.601 347.483C344.626 351.931 414.707 373.61 414.707 420.038V449.831H98.293Z" fill="url(#paint4_linear)"/>
<path d="M275.548 332.602V342.815C275.548 347.733 279.338 351.837 284.257 352.182C319.971 354.845 351.957 362.677 374.325 374.237C398.009 386.486 410.008 401.899 410.008 420.038V445.132H102.992V420.038C102.992 400.834 115.022 385.014 138.706 373.046C160.824 361.862 191.933 354.625 228.681 352.119C233.599 351.774 237.421 347.67 237.421 342.752V332.602H275.548V332.602ZM284.946 323.203H228.054V342.752C157.785 347.576 93.5938 370.603 93.5938 420.038V454.531H419.406V420.038C419.406 373.328 355.528 348.046 284.946 342.815V323.203V323.203Z" fill="#2E2629"/>
<path d="M215.963 345.415L216.809 429.468H295.129L296.789 345.415L284.478 341.749L284.947 323.203H228.056L228.619 341.718L215.963 345.415Z" fill="#F8F8F7"/>
<path d="M189.867 365.307C189.867 365.307 209.51 386.766 256.502 386.766C304.528 386.766 323.043 365.307 323.043 365.307" stroke="#FFCB13" stroke-width="2" stroke-miterlimit="10" stroke-linecap="round" stroke-linejoin="round"/>
<path d="M189.867 365.307C189.867 365.307 209.51 413.395 256.502 413.395C304.528 413.395 323.074 365.307 323.074 365.307" stroke="#FFCB13" stroke-width="2" stroke-miterlimit="10" stroke-linecap="round" stroke-linejoin="round"/>
<path d="M189.929 380.001C196.314 380.001 201.489 374.825 201.489 368.441C201.489 362.056 196.314 356.881 189.929 356.881C183.545 356.881 178.369 362.056 178.369 368.441C178.369 374.825 183.545 380.001 189.929 380.001Z" fill="#F19102"/>
<path d="M323.074 380.001C329.458 380.001 334.634 374.825 334.634 368.441C334.634 362.056 329.458 356.881 323.074 356.881C316.689 356.881 311.514 362.056 311.514 368.441C311.514 374.825 316.689 380.001 323.074 380.001Z" fill="#F19102"/>
<path d="M170.882 267.376C154.091 267.376 140.463 252.745 140.463 234.763C140.463 216.781 154.122 202.15 170.882 202.15H342.091C358.883 202.15 372.51 216.781 372.51 234.763C372.51 252.745 358.851 267.376 342.091 267.376H170.882V267.376Z" fill="#8E4A30"/>
<path d="M342.122 205.252C357.16 205.252 369.409 218.472 369.409 234.732C369.409 250.991 357.16 264.211 342.122 264.211H170.882C155.845 264.211 143.596 250.991 143.596 234.732C143.596 218.472 155.845 205.252 170.882 205.252H342.122V205.252ZM342.122 198.986H170.882C152.43 198.986 137.33 215.089 137.33 234.732C137.33 254.406 152.43 270.477 170.882 270.477H342.091C360.543 270.477 375.643 254.374 375.643 234.732C375.674 215.089 360.574 198.986 342.122 198.986V198.986Z" fill="#793A24"/>
<path d="M256.5 339.465C207.44 339.465 154.621 301.432 154.621 217.88C154.621 179.096 165.774 143.35 186.012 117.223C204.965 92.7869 230.654 78.7832 256.5 78.7832C282.346 78.7832 308.035 92.7869 326.988 117.223C347.226 143.35 358.379 179.096 358.379 217.88C358.379 255.756 347.383 287.397 326.613 309.39C308.254 328.782 283.348 339.465 256.5 339.465V339.465Z" fill="url(#paint5_linear)"/>
<path d="M256.5 81.9473C281.375 81.9473 306.155 95.5123 324.514 119.165C344.344 144.729 355.246 179.785 355.246 217.911C355.246 254.973 344.564 285.893 324.326 307.259C306.563 326.025 282.471 336.363 256.5 336.363C230.529 336.363 206.438 326.025 188.675 307.259C168.437 285.893 157.754 254.973 157.754 217.911C157.754 179.816 168.687 144.76 188.487 119.165C206.845 95.5123 231.626 81.9473 256.5 81.9473V81.9473ZM256.5 75.6816C201.989 75.6816 151.488 133.983 151.488 217.88C151.488 301.338 203.524 342.597 256.5 342.597C309.476 342.597 361.512 301.338 361.512 217.88C361.512 133.983 311.011 75.6816 256.5 75.6816V75.6816Z" fill="#844C2F"/>
<path d="M268.594 254.219C268.249 254.094 267.936 254 267.591 253.969H245.442C245.098 254 244.753 254.094 244.44 254.219C242.435 255.034 241.338 257.102 242.278 259.326C243.218 261.55 247.635 267.753 256.533 267.753C265.43 267.753 269.847 261.519 270.787 259.326C271.695 257.102 270.599 255.034 268.594 254.219Z" fill="#8E4A30"/>
<path d="M282.879 279.53C272.885 285.451 240.178 285.451 230.216 279.53C224.483 276.115 218.625 281.347 221.005 286.548C223.355 291.654 241.212 303.528 256.626 303.528C272.039 303.528 289.677 291.654 292.026 286.548C294.376 281.347 288.612 276.115 282.879 279.53Z" fill="#4A261F"/>
<path d="M229.338 278.029L232.471 293.662L239.801 281.319L229.338 278.029Z" fill="white"/>
<path d="M283.661 278.029L280.528 293.662L273.197 281.319L283.661 278.029Z" fill="white"/>
<path d="M204.994 241.22C213.523 241.22 220.438 234.067 220.438 225.243C220.438 216.419 213.523 209.266 204.994 209.266C196.464 209.266 189.549 216.419 189.549 225.243C189.549 234.067 196.464 241.22 204.994 241.22Z" fill="#351F19"/>
<path d="M308.003 241.22C316.533 241.22 323.448 234.067 323.448 225.243C323.448 216.419 316.533 209.266 308.003 209.266C299.473 209.266 292.559 216.419 292.559 225.243C292.559 234.067 299.473 241.22 308.003 241.22Z" fill="#351F19"/>
<path d="M228.241 197.078C225.327 193.225 218.623 187.648 205.591 187.648C192.558 187.648 185.823 193.256 182.94 197.078C181.656 198.77 181.969 200.744 182.878 201.934C183.692 203.031 186.136 204.064 188.83 203.156C191.524 202.247 196.787 199.522 205.591 199.459C214.394 199.522 219.657 202.247 222.351 203.156C225.045 204.064 227.489 203.062 228.303 201.934C229.212 200.744 229.525 198.77 228.241 197.078V197.078Z" fill="#5B3127"/>
<path d="M330.057 197.078C327.144 193.225 320.439 187.648 307.407 187.648C294.374 187.648 287.639 193.256 284.757 197.078C283.472 198.77 283.786 200.744 284.694 201.934C285.509 203.031 287.952 204.064 290.646 203.156C293.341 202.247 298.604 199.522 307.407 199.459C316.21 199.522 321.473 202.247 324.168 203.156C326.862 204.064 329.305 203.062 330.12 201.934C331.028 200.744 331.342 198.77 330.057 197.078Z" fill="#5B3127"/>
<path d="M378.212 122.264C370.38 110.39 351.614 94.0685 337.579 96.4494C338.3 81.4119 326.458 67.4709 312.203 62.6777C273.231 49.5512 231.157 70.3218 219.691 74.3944C181.252 87.9908 177.43 63.8682 177.43 63.8682C156.565 74.2691 170.287 96.6061 170.287 96.6061C170.287 96.6061 149.14 95.0397 140.087 113.335C130.626 132.477 138.959 147.107 138.959 147.107C138.959 147.107 118.596 160.046 126.584 183.542C131.879 199.143 147.731 205.409 147.731 205.409C145.788 239.055 156.409 255.377 156.409 255.377C156.409 255.377 157.035 219.82 161.891 191.436C168.971 150.083 186.014 138.617 208.037 135.39C227.962 132.477 255.938 160.703 255.938 160.703V160.672L255.969 160.703C255.969 160.703 283.977 132.477 303.87 135.39C325.894 138.617 341.119 150.428 350.016 191.436C353.682 208.291 357.253 234.45 357.253 253.591C357.253 252.088 368.218 233.541 370.16 214.744C370.881 207.758 381.47 190.716 384.665 178.028C391.589 150.49 382.504 128.749 378.212 122.264V122.264Z" fill="url(#paint6_radial)"/>
<path d="M122.134 185.047C122.385 185.736 122.667 186.457 122.98 187.177L130.123 196.231L133.569 187.491L132.567 185.517C131.909 184.201 131.439 183.105 131.063 182.04C124.39 162.428 140.806 151.557 141.495 151.087L145.192 148.707L143.062 144.853C142.78 144.321 136.138 131.946 144.315 115.467C151.614 100.712 168.594 103.782 169.315 103.907L178.556 105.756L174.452 97.2657C174.139 96.5765 167.592 82.6355 175.486 72.1719C177.209 75.3361 179.966 78.9075 184.383 81.5704C193.312 86.9901 205.687 86.9588 221.194 81.4764C223.669 80.5992 226.457 79.0954 229.966 77.1531C244.157 69.415 267.904 56.4452 305.529 68.3499C319.126 72.6732 333.474 84.5465 332.91 96.2006L332.628 102.059L338.392 101.088C349.671 99.2081 366.901 113.65 374.326 124.866C378.148 130.63 386.794 154.628 380.341 180.348C379.996 181.758 379.526 183.293 378.9 185.047L378.211 186.989L378.336 187.24L381.751 193.192L388.361 187.24C388.517 186.52 389.207 183.669 389.457 182.666C396.475 154.69 387.703 128.093 382.189 119.728C374.545 108.137 357.409 92.6605 342.027 91.6267C339.552 76.8398 323.731 64.3086 308.411 59.4527C266.902 46.2636 239.928 60.9878 225.423 68.9138C222.416 70.5742 219.816 71.9839 218.03 72.6105C205.593 77.0278 195.693 77.3724 189.365 73.613C183.193 69.9476 182.096 63.494 182.065 63.2434L181 55.5993L174.703 60.0166C161.42 69.3837 160.919 83.92 163.425 94.1016C154.246 94.4775 142.216 98.3622 135.856 111.238C128.275 126.589 130.969 139.402 133.162 145.542C125.267 152.278 115.806 166.376 122.134 185.047V185.047Z" fill="#2B1512"/>
</g>
<defs>
<linearGradient id="paint0_linear" x1="68.5312" y1="332.579" x2="444.469" y2="332.579" gradientUnits="userSpaceOnUse">
<stop offset="0.0032478" stop-color="#3A3233"/>
<stop offset="0.3326" stop-color="#2D2728"/>
<stop offset="0.9409" stop-color="#0B0909"/>
<stop offset="1" stop-color="#070606"/>
</linearGradient>
<linearGradient id="paint1_linear" x1="256.075" y1="252.396" x2="256.075" y2="385.484" gradientUnits="userSpaceOnUse">
<stop offset="0.0032115" stop-color="#F70000"/>
<stop offset="0.2347" stop-color="#F30000"/>
<stop offset="0.4427" stop-color="#E90000"/>
<stop offset="0.6417" stop-color="#D60000"/>
<stop offset="0.834" stop-color="#BD0000"/>
<stop offset="1" stop-color="#A00000"/>
</linearGradient>
<radialGradient id="paint2_radial" cx="0" cy="0" r="1" gradientUnits="userSpaceOnUse" gradientTransform="translate(278.795 232.726) scale(72.7032)">
<stop stop-color="#5B3127"/>
<stop offset="1" stop-color="#3D1C16"/>
</radialGradient>
<radialGradient id="paint3_radial" cx="0" cy="0" r="1" gradientUnits="userSpaceOnUse" gradientTransform="translate(215.725 243.691) scale(72.8379)">
<stop stop-color="#5B3127"/>
<stop offset="1" stop-color="#3D1C16"/>
</radialGradient>
<linearGradient id="paint4_linear" x1="256.5" y1="327.89" x2="256.5" y2="449.831" gradientUnits="userSpaceOnUse">
<stop offset="0.0032478" stop-color="#3A3233"/>
<stop offset="0.3326" stop-color="#2D2728"/>
<stop offset="0.9409" stop-color="#0B0909"/>
<stop offset="1" stop-color="#070606"/>
</linearGradient>
<linearGradient id="paint5_linear" x1="256.5" y1="337.337" x2="256.5" y2="81.1798" gradientUnits="userSpaceOnUse">
<stop stop-color="#9B6344"/>
<stop offset="0.2573" stop-color="#A96F46"/>
<stop offset="0.5878" stop-color="#B37748"/>
<stop offset="1" stop-color="#B67A48"/>
</linearGradient>
<radialGradient id="paint6_radial" cx="0" cy="0" r="1" gradientUnits="userSpaceOnUse" gradientTransform="translate(257.523 146.01) scale(113.95 98.4754)">
<stop stop-color="#5B3127"/>
<stop offset="1" stop-color="#3D1C16"/>
</radialGradient>
<clipPath id="clip0">
<rect width="401" height="401" fill="white" transform="translate(56 41)"/>
</clipPath>
</defs>
</svg>
